<svg xmlns="http://www.w3.org/2000/svg" width="114" height="28" viewBox="0 0 114 28"><g><linearGradient id="a" gradientUnits="userSpaceOnUse" x1="2" y1="14" x2="112" y2="14"><stop offset="0" stop-color="#F2F2F2"/><stop offset=".5" stop-color="#FAFAFA"/><stop offset=".967" stop-color="#F3F3F3"/><stop offset="1" stop-color="#F2F2F2"/></linearGradient><path d="M112 22.5c0 1.925-1.575 3.5-3.5 3.5H5.5C3.575 26 2 24.425 2 22.5v-17C2 3.575 3.575 2 5.5 2h103c1.925 0 3.5 1.575 3.5 3.5v17z" fill="url(#a)"/><path d="M108.5 2c1.925 0 3.5 1.575 3.5 3.5v17c0 1.925-1.575 3.5-3.5 3.5H5.5C3.575 26 2 24.425 2 22.5v-17C2 3.575 3.575 2 5.5 2h103m0-2H5.5C2.467 0 0 2.467 0 5.5v17C0 25.533 2.467 28 5.5 28h103c3.033 0 5.5-2.467 5.5-5.5v-17c0-3.033-2.467-5.5-5.5-5.5z"/><path fill="#f60" d="M81 18h4v4h-4z"/><path d="M17 9.39h3.037v1.255h.047c.807-1.12 1.796-1.577 3.13-1.577 1.45 0 2.51.71 2.856 1.966h.047c.482-1.303 1.635-1.966 3.13-1.966 2.097 0 3.085 1.302 3.085 3.68v8.93h-3.178v-8.59c0-1.025-.344-1.597-1.242-1.597-1.012 0-1.656.687-1.656 2.1v8.09h-3.18v-8.59c0-1.027-.346-1.6-1.242-1.6-1.014 0-1.658.687-1.658 2.1v8.09H17V9.39zM34.358 15.533c0 4.27 1.06 6.533 4.882 6.465 3.637 0 4.88-2.262 4.88-6.465 0-4.27-1.058-6.533-4.88-6.466-3.638 0-4.882 2.262-4.882 6.466m3.18 0c0-2.513.136-4.317 1.702-4.317 1.29 0 1.703 1.257 1.703 4.317s-.412 4.316-1.703 4.316c-1.566 0-1.703-1.805-1.703-4.317M46.16 21.678h3.04v-1.303h.046c.69 1.144 1.566 1.623 2.81 1.623 2.6 0 3.8-1.895 3.8-6.465s-1.2-6.466-3.8-6.466c-1.198 0-2.003.48-2.67 1.462h-.047V5.366h-3.18v16.31zm3.18-6.145c0-2.672.274-4.043 1.68-4.043 1.383 0 1.658 1.37 1.658 4.043s-.275 4.043-1.658 4.043c-1.406 0-1.68-1.37-1.68-4.043"/><path d="M58.227 5.186h3.176V7.88h-3.176V5.187zm0 4.203h3.176v12.288h-3.176V9.388zM64.248 5.365h3.178v16.31h-3.178zM78.982 15.95v-.71c0-3.768-.828-6.234-4.535-6.234-4.28 0-4.925 3.06-4.925 6.352 0 3.06.183 6.578 4.788 6.578 2.994 0 4.375-1.598 4.49-4.455h-2.855c-.186 1.51-.62 2.31-1.68 2.31-1.176 0-1.566-1.418-1.566-2.856v-.98h6.282zM72.7 14.08v-.48c0-1.143.366-2.445 1.632-2.445 1.314 0 1.543 1.053 1.613 2.926H72.7zM93.693 21.678h3.04V5.368h-3.18v5.16h-.043c-.668-.98-1.475-1.46-2.67-1.46-2.602 0-3.8 1.895-3.8 6.465s1.198 6.465 3.8 6.465c1.242 0 2.117-.48 2.807-1.623h.047v1.303zm-3.476-6.145c0-2.672.275-4.043 1.656-4.043 1.404 0 1.682 1.37 1.682 4.043s-.277 4.043-1.682 4.043c-1.38 0-1.656-1.37-1.656-4.043"/><path d="M108.295 16.014v-.71c0-3.768-.828-6.237-4.535-6.237-4.283 0-4.928 3.062-4.928 6.352 0 3.06.186 6.58 4.79 6.58 2.99 0 4.374-1.6 4.49-4.456h-2.857c-.183 1.508-.622 2.307-1.68 2.307-1.175 0-1.567-1.415-1.567-2.853v-.982h6.287zm-6.287-1.875v-.48c0-1.142.37-2.443 1.637-2.443 1.312 0 1.54 1.05 1.61 2.923h-3.247z"/><path d="M5.6 26C3.61 26 2 24.39 2 22.4V5.6C2 3.61 3.61 2 5.6 2H14v24H5.6z" fill="#f60"/></g></svg>