<?xml version="1.0" encoding="utf-8"?>
<!-- Generator: Adobe Illustrator 16.0.4, SVG Export Plug-In . SVG Version: 6.00 Build 0)  -->
<!DOCTYPE svg PUBLIC "-//W3C//DTD SVG 1.1//EN" "http://www.w3.org/Graphics/SVG/1.1/DTD/svg11.dtd">
<svg version="1.1" xmlns="http://www.w3.org/2000/svg" xmlns:xlink="http://www.w3.org/1999/xlink" x="0px" y="0px"
	 width="366.792px" height="395.716px" viewBox="27.953 98.547 366.792 395.716"
	 enable-background="new 27.953 98.547 366.792 395.716" xml:space="preserve">
<g id="Layer_2">

		<path id="path3892_2_" opacity="0.5" fill="#1D1D1B" stroke="#FFFFFF" stroke-width="16" stroke-miterlimit="10" d="
		M328.346,413.115c0-3.945,1.441-7.361,4.326-10.244c2.883-2.883,6.297-4.324,10.242-4.324c3.943,0,7.359,1.441,10.242,4.324
		s4.324,6.299,4.324,10.244s-1.441,7.357-4.324,10.242c-2.883,2.883-6.299,4.324-10.242,4.324c-3.945,0-7.359-1.441-10.242-4.324
		C329.788,420.473,328.346,417.061,328.346,413.115z M66.131,282.008c0-7.74,2.959-14.529,8.877-20.373
		c5.918-5.842,12.67-8.764,20.258-8.764h80.121c0-8.801-3.641-20.903-10.924-36.305s-10.928-27.58-10.928-36.533
		c0-14.871,2.43-25.874,7.285-33.004c4.855-7.132,14.566-10.698,29.135-10.698c3.945,3.945,6.828,10.396,8.648,19.349
		c1.822,8.953,4.137,18.475,6.943,28.565c2.807,10.092,7.32,18.4,13.543,24.926c3.338,3.49,9.18,10.395,17.525,20.713
		c0.605,0.76,2.352,3.033,5.234,6.828c2.883,3.795,5.273,6.905,7.17,9.333c1.896,2.43,4.516,5.652,7.855,9.674
		c3.338,4.021,6.373,7.36,9.104,10.016c2.732,2.656,5.652,5.35,8.764,8.082c3.111,2.73,6.146,4.777,9.104,6.145
		c2.961,1.365,5.654,2.049,8.08,2.049h7.285v145.674h-7.285c-1.971,0-4.361,0.229-7.17,0.684c-2.807,0.455-5.311,0.949-7.51,1.479
		c-2.201,0.531-5.084,1.367-8.65,2.504c-3.565,1.139-6.222,2.012-7.968,2.617c-1.744,0.607-4.438,1.557-8.08,2.846
		c-3.641,1.291-5.842,2.088-6.6,2.391c-32.02,11.078-57.969,16.617-77.848,16.617h-27.539c-29.137,0-43.703-12.672-43.703-38.012
		c0-3.945,0.379-8.195,1.139-12.748c-4.553-2.43-8.156-6.41-10.812-11.949s-3.984-11.115-3.984-16.73
		c0-5.613,1.365-10.85,4.098-15.705c-8.041-7.588-12.062-16.615-12.062-27.086c0-3.795,0.758-8.006,2.275-12.633
		c1.518-4.629,3.414-8.232,5.689-10.812c-4.855-0.152-8.914-3.719-12.178-10.697C67.761,293.463,66.131,287.319,66.131,282.008z
		 M36.996,281.78c0,13.504,3.719,25.871,11.152,37.102c-1.365,5.008-2.049,10.242-2.049,15.705c0,11.686,2.883,22.611,8.65,32.777
		c-0.455,3.188-0.684,6.449-0.684,9.787c0,15.326,4.553,28.832,13.658,40.516c-0.152,21.092,6.297,37.748,19.346,49.963
		c13.051,12.215,30.273,18.322,51.67,18.322h8.193h21.168c14.568,0,28.945-1.707,43.135-5.121
		c14.188-3.414,30.613-8.385,49.277-14.908c17.606-6.068,28.075-9.104,31.413-9.104h65.553c8.043,0,14.91-2.846,20.602-8.535
		c5.689-5.691,8.535-12.559,8.535-20.602V282.008c0-8.043-2.846-14.91-8.535-20.6c-5.689-5.692-12.559-8.538-20.602-8.538h-62.365
		c-5.463-3.643-15.857-15.401-31.187-35.28c-8.801-11.381-16.918-21.094-24.354-29.135c-3.643-3.795-6.334-10.281-8.08-19.463
		c-1.744-9.179-4.061-18.777-6.941-28.792c-2.885-10.015-7.588-18.209-14.113-24.583c-5.918-5.614-12.746-8.421-20.484-8.421
		c-12.746,0-24.203,2.466-34.371,7.397c-10.166,4.932-17.904,12.633-23.217,23.103c-5.311,10.47-7.967,24.583-7.967,42.337
		c0,14.113,3.643,28.682,10.926,43.703H95.265c-15.781,0-29.438,5.768-40.971,17.299C42.761,252.568,36.996,266.151,36.996,281.78z"
		/>
</g>
</svg>
